# xmcd
#
# Track frame offsets:
#	150
#	15385
#	30182
#	46131
#	62398
#	74720
#	96097
#	107864
#	121064
#	134902
#	155302
#	166949
#	178837
#
# Disc length: 2547 seconds
#
# Revision: 0
# Processed by: cddbd v1.5.1PL0 Copyright (c) Steve Scherf et al.
# Submitted via: dBpowerAMP V4.0
#
DISCID=a509f10d
DTITLE=Billy and the Beer Bellies - You Get What You Get
DYEAR=1900
DGENRE=Country
TTITLE0=Dirty Dancin
TTITLE1=One Good Reason
TTITLE2=Stanleys and the Johnsons
TTITLE3=Going Down Hill
TTITLE4=Navaho Rug
TTITLE5=Desert Skies
TTITLE6=Janet's Tune
TTITLE7=Mean Women (with the green eyes)
TTITLE8=Folsom Prison Blues
TTITLE9=Two Bends in the Road
TTITLE10=Midnight on the Highway
TTITLE11=Grapefruit Juicyfruit
TTITLE12=Clsoe the Door Lightly When You Go
EXTD=
EXTT0=
EXTT1=
EXTT2=
EXTT3=
EXTT4=
EXTT5=
EXTT6=
EXTT7=
EXTT8=
EXTT9=
EXTT10=
EXTT11=
EXTT12=
PLAYORDER=
